<svg xmlns="http://www.w3.org/2000/svg" width="557" height="576" viewBox="0 0 557 576">
  <defs>
    <style>
      .cls-1 {
        fill: #f13737;
      }

      .cls-2, .cls-3 {
        stroke: none;
      }

      .cls-3 {
        fill: #707070;
      }
    </style>
  </defs>
  <g id="Union_1" data-name="Union 1" class="cls-1">
    <path class="cls-2" d="M 278.4996337890625 575.5 C 259.6371459960938 575.5 240.7879180908203 573.53515625 222.4754943847656 569.6599731445312 C 204.6269226074219 565.8823852539062 187.0711364746094 560.2467041015625 170.2958526611328 552.90966796875 C 153.8251342773438 545.7054443359375 137.9374847412109 536.7877197265625 123.0742721557617 526.4042358398438 C 108.3523483276367 516.1188354492188 94.50949096679688 504.307861328125 81.93006134033203 491.299072265625 C 69.34970092773438 478.2902221679688 57.9278450012207 463.9746398925781 47.98177719116211 448.7500610351562 C 37.94005966186523 433.3792114257812 29.31591796875 416.947998046875 22.34898948669434 399.9129333496094 C 15.25148963928223 382.561279296875 9.800918579101562 364.4038696289062 6.148775100708008 345.9448547363281 C 2.400489568710327 327.0049133300781 0.4999895989894867 307.5094909667969 0.4999895989894867 288 C 0.4999895989894867 268.4905090332031 2.400489568710327 248.9950714111328 6.148775100708008 230.0551452636719 C 9.80056095123291 211.5980682373047 15.25106143951416 193.4406433105469 22.34898948669434 176.0870666503906 C 29.31691741943359 159.0504302978516 37.94106292724609 142.6192932128906 47.98177719116211 127.2499313354492 C 57.92605972290039 112.0281448364258 69.34791564941406 97.71257019042969 81.93006134033203 84.70099639892578 C 94.50920104980469 71.69249725341797 108.3521347045898 59.88135528564453 123.0742721557617 49.59578704833984 C 137.9377746582031 39.21214294433594 153.8254241943359 30.2944278717041 170.2958526611328 23.09035682678223 C 187.0692749023438 15.7537145614624 204.6250610351562 10.11807155609131 222.4754943847656 6.340071201324463 C 240.7877807617188 2.46485710144043 259.6369934082031 0.5 278.4996337890625 0.5 C 297.3622741699219 0.5 316.2114868164062 2.46485710144043 334.5237121582031 6.340071201324463 C 352.3736267089844 10.11800003051758 369.9297790527344 15.75357151031494 386.7042846679688 23.09035682678223 C 403.1747131347656 30.2944278717041 419.0623474121094 39.21214294433594 433.9258422851562 49.59578704833984 C 448.6482849121094 59.88150024414062 462.4911193847656 71.69264221191406 475.070068359375 84.70099639892578 C 487.6504821777344 97.70999908447266 499.0723571777344 112.0254974365234 509.0183410644531 127.2499313354492 C 519.06005859375 142.6207885742188 527.6842041015625 159.052001953125 534.651123046875 176.0870666503906 C 541.7489624023438 193.4404296875 547.1995849609375 211.5978546142578 550.8512573242188 230.0551452636719 C 554.5995483398438 248.9949340820312 556.5001220703125 268.4904174804688 556.5001220703125 288 C 556.5001220703125 307.5095825195312 554.5995483398438 327.0050659179688 550.8512573242188 345.9448547363281 C 547.1991577148438 364.4040832519531 541.7486572265625 382.5614929199219 534.651123046875 399.9129333496094 C 527.6842041015625 416.947998046875 519.06005859375 433.3792114257812 509.0183410644531 448.7500610351562 C 499.072265625 463.9746398925781 487.6504211425781 478.2902221679688 475.070068359375 491.299072265625 C 462.4900512695312 504.3085021972656 448.6471252441406 516.1195678710938 433.9258422851562 526.4042358398438 C 419.0626220703125 536.7877197265625 403.1749877929688 545.7054443359375 386.7042846679688 552.90966796875 C 369.9295654296875 560.2465209960938 352.3735046386719 565.8821411132812 334.5237121582031 569.6599731445312 C 316.2113342285156 573.53515625 297.3621215820312 575.5 278.4996337890625 575.5 Z M 459.3451232910156 139.7872924804688 L 458.956787109375 140.2327880859375 C 458.6726989746094 140.5587158203125 458.3797607421875 140.8836364746094 458.0862121582031 141.1984252929688 L 149.1405639648438 472.5019226074219 C 147.1758422851562 474.6089172363281 144.9807739257812 476.48828125 142.6161346435547 478.0877075195312 L 142.0425567626953 478.4756469726562 L 142.5912780761719 478.8980712890625 C 183.0467071533203 510.0392761230469 231.2533416748047 526.4996337890625 281.9996948242188 526.4996337890625 C 409.6494140625 526.4996337890625 513.5 420.8547973632812 513.5 290.9997253417969 C 513.5 236.0250701904297 494.400634765625 182.4857177734375 459.7201232910156 140.2440643310547 L 459.3451232910156 139.7872924804688 Z M 281.9996948242188 55.49978637695312 C 154.3505554199219 55.49978637695312 50.50034713745117 161.1446380615234 50.50034713745117 290.9997253417969 C 50.50034713745117 338.3944396972656 64.34284973144531 384.1221313476562 90.53134918212891 423.2393493652344 L 90.91620635986328 423.814208984375 L 91.34134674072266 423.2684326171875 C 92.03627777099609 422.376220703125 92.78205871582031 421.5019226074219 93.55799102783203 420.6697998046875 L 401.7222900390625 90.20413970947266 L 402.1385498046875 89.75778198242188 L 401.6189880371094 89.4375 C 365.6016235351562 67.23528289794922 324.2379150390625 55.49978637695312 281.9996948242188 55.49978637695312 Z"/>
    <path class="cls-3" d="M 278.4996337890625 575 C 297.3274230957031 575 316.141845703125 573.0387573242188 334.4201354980469 569.1707763671875 C 352.2367858886719 565.4000244140625 369.7602844238281 559.7747802734375 386.50390625 552.4514770507812 C 402.9444885253906 545.260498046875 418.8031921386719 536.3590087890625 433.6394958496094 525.9942626953125 C 448.3345642089844 515.7280883789062 462.15283203125 503.9379272460938 474.7106323242188 490.9515075683594 C 487.2689819335938 477.9653625488281 498.6709289550781 463.6747131347656 508.5997009277344 448.4765625 C 518.6241455078125 433.1322937011719 527.2333984375 416.7294311523438 534.1883544921875 399.7236328125 C 541.273681640625 382.4019165039062 546.7149047851562 364.2755126953125 550.3607788085938 345.8477783203125 C 554.102783203125 326.93994140625 556.0001220703125 307.4770812988281 556.0001220703125 288 C 556.0001220703125 268.5229187011719 554.102783203125 249.0600738525391 550.3607788085938 230.1521453857422 C 546.7152709960938 211.7264251708984 541.2740478515625 193.6000061035156 534.1883544921875 176.2763519287109 C 527.2333984375 159.2705688476562 518.6241455078125 142.8677215576172 508.5997009277344 127.5234298706055 C 498.6710510253906 112.3254318237305 487.2690734863281 98.03485870361328 474.7106323242188 85.04856872558594 C 462.1539916992188 72.06321716308594 448.3356323242188 60.2730712890625 433.6394958496094 50.00571441650391 C 418.802978515625 39.6408576965332 402.9442749023438 30.73935699462891 386.50390625 23.54850006103516 C 369.760498046875 16.22528648376465 352.2369995117188 10.60014247894287 334.4201965332031 6.829285621643066 C 316.1419067382812 2.961214303970337 297.3275756835938 1 278.4996337890625 1 C 259.6716918945312 1 240.8573455810547 2.961214303970337 222.5790557861328 6.829285621643066 C 204.7617797851562 10.6002140045166 187.2385559082031 16.22535705566406 170.4962005615234 23.54850006103516 C 154.0558471679688 30.73935699462891 138.1971282958984 39.6408576965332 123.3606338500977 50.00571441650391 C 108.6647033691406 60.27293014526367 94.84634399414062 72.06307220458984 82.28948974609375 85.04856872558594 C 69.72934722900391 98.03742980957031 58.32734680175781 112.3280715942383 48.40041732788086 127.5234298706055 C 38.37699127197266 142.8662109375 29.76770401000977 159.2690734863281 22.81177520751953 176.2763519287109 C 15.72606086730957 193.6002197265625 10.28477573394775 211.7266387939453 6.639275550842285 230.1522216796875 C 2.89727520942688 249.0602111816406 0.9999896287918091 268.5230102539062 0.9999896287918091 288 C 0.9999896287918091 307.4769897460938 2.89727520942688 326.9397888183594 6.639275550842285 345.8478698730469 C 10.28520393371582 364.2752990722656 15.72641849517822 382.4017028808594 22.81177520751953 399.7236328125 C 29.76670455932617 416.7294311523438 38.3759880065918 433.1322937011719 48.40041732788086 448.4765625 C 58.32920455932617 463.6747131347656 69.73113250732422 477.9653625488281 82.28948974609375 490.9515075683594 C 94.84663391113281 503.9372253417969 108.6649932861328 515.7273559570312 123.3606338500977 525.9942626953125 C 138.1969146728516 536.3590087890625 154.0556335449219 545.260498046875 170.4962005615234 552.4514770507812 C 187.2404174804688 559.7750854492188 204.7636260986328 565.4002075195312 222.5789947509766 569.1707763671875 C 240.857421875 573.0387573242188 259.6718444824219 575 278.4996337890625 575 M 459.3565673828125 139.0132904052734 L 460.1065673828125 139.9267883300781 C 494.8602905273438 182.2576446533203 514 235.9097137451172 514 290.9997253417969 C 514 421.1304931640625 409.925048828125 526.9996337890625 281.9996948242188 526.9996337890625 C 231.1420593261719 526.9996337890625 182.8299255371094 510.50341796875 142.2862701416016 479.2942810058594 L 141.1888427734375 478.4494934082031 L 142.3359832763672 477.673583984375 C 144.6694946289062 476.0951538085938 146.8358459472656 474.2405090332031 148.7748413085938 472.1609191894531 L 457.7205505371094 140.857421875 C 458.0103454589844 140.5467071533203 458.2994079589844 140.2259979248047 458.5799255371094 139.9042816162109 L 459.3565673828125 139.0132904052734 M 281.9996948242188 54.99978637695312 C 324.3307189941406 54.99978637695312 365.7850646972656 66.76100158691406 401.88134765625 89.01185607910156 L 402.9205017089844 89.65242767333984 L 402.0879821777344 90.54514312744141 L 93.92362976074219 421.0107727050781 C 93.15777587890625 421.8321533203125 92.421630859375 422.695068359375 91.73577880859375 423.5757141113281 L 90.88555908203125 424.6672058105469 L 90.1158447265625 423.517578125 C 63.87206268310547 384.3177185058594 50.00034713745117 338.4938659667969 50.00034713745117 290.9997253417969 C 50.00034713745117 160.8689270019531 154.0748443603516 54.99978637695312 281.9996948242188 54.99978637695312 M 278.4996337890625 576 C 259.6032104492188 576 240.7194213867188 574.03173828125 222.3719940185547 570.149169921875 C 204.4907684326172 566.3646240234375 186.9029846191406 560.7189331054688 170.0954895019531 553.3677368164062 C 153.5931396484375 546.1497192382812 137.6766357421875 537.2154541015625 122.7879180908203 526.8140869140625 C 108.0404891967773 516.5109252929688 94.17334747314453 504.6795043945312 81.57063293457031 491.6466369628906 C 68.96791839599609 478.6146545410156 57.52620315551758 464.2739868164062 47.56320571899414 449.0234985351562 C 37.50484848022461 433.6272277832031 28.86570358276367 417.1679992675781 21.88620376586914 400.1022033691406 C 14.77713203430176 382.7223510742188 9.31684684753418 364.5332946777344 5.658275127410889 346.0419311523438 C 1.903489589691162 327.0690002441406 -1.039341532305116e-05 307.540771484375 -1.039341532305116e-05 288 C -1.039341532305116e-05 268.459228515625 1.903489589691162 248.9309997558594 5.658275127410889 229.9580688476562 C 9.31684684753418 211.4667205810547 14.77713203430176 193.2786407470703 21.88620376586914 175.8977813720703 C 28.86570358276367 158.8329315185547 37.50484848022461 142.3727874755859 47.56320571899414 126.9765014648438 C 57.52620315551758 111.7259979248047 68.96791839599609 97.38628387451172 81.57063293457031 84.35343170166016 C 94.17334747314453 71.32050323486328 108.0404891967773 59.48914337158203 122.7879180908203 49.18592834472656 C 137.6766357421875 38.78464126586914 153.5931396484375 29.85028648376465 170.0954895019531 22.63228607177734 C 186.9021301269531 15.28107166290283 204.4907684326172 9.635428428649902 222.3719940185547 5.850928783416748 C 240.7194213867188 1.9682856798172 259.6032104492188 5.684341886080801e-14 278.4996337890625 5.684341886080801e-14 C 297.39599609375 5.684341886080801e-14 316.2798461914062 1.9682856798172 334.627197265625 5.850928783416748 C 352.5084228515625 9.635428428649902 370.0971374511719 15.28107166290283 386.9046325683594 22.63228607177734 C 403.406982421875 29.85028648376465 419.323486328125 38.78464126586914 434.2121887207031 49.18592834472656 C 448.9596252441406 59.48914337158203 462.8268432617188 71.32050323486328 475.4295043945312 84.35343170166016 C 488.0321960449219 97.38542938232422 499.4739074707031 111.7259979248047 509.4369201660156 126.9765014648438 C 519.4953002929688 142.3727874755859 528.1343994140625 158.8320007324219 535.1138916015625 175.8977813720703 C 542.2230834960938 193.2786407470703 547.6832885742188 211.4667205810547 551.341796875 229.9580688476562 C 555.0966186523438 248.9309997558594 557.0001220703125 268.459228515625 557.0001220703125 288 C 557.0001220703125 307.540771484375 555.0966186523438 327.0690002441406 551.341796875 346.0419311523438 C 547.6832885742188 364.5332946777344 542.2230834960938 382.7223510742188 535.1138916015625 400.1022033691406 C 528.1343994140625 417.1679992675781 519.4953002929688 433.6272277832031 509.4369201660156 449.0234985351562 C 499.4739074707031 464.2739868164062 488.0321960449219 478.6146545410156 475.4295043945312 491.6466369628906 C 462.8268432617188 504.6795043945312 448.9587097167969 516.5118408203125 434.2121887207031 526.8140869140625 C 419.323486328125 537.2154541015625 403.406982421875 546.1497192382812 386.9046325683594 553.3677368164062 C 370.0971374511719 560.7189331054688 352.5084228515625 566.3646240234375 334.627197265625 570.149169921875 C 316.2798461914062 574.03173828125 297.39599609375 576 278.4996337890625 576 Z M 459.3337097167969 140.5613555908203 C 459.0459899902344 140.8914337158203 458.7528381347656 141.2167205810547 458.451904296875 141.5394287109375 L 149.5062103271484 472.8429260253906 C 147.4785614013672 475.0174865722656 145.2585601806641 476.9039916992188 142.8962707519531 478.5018615722656 C 181.6171264648438 508.307861328125 229.8111267089844 525.9996337890625 281.9996948242188 525.9996337890625 C 409.3740539550781 525.9996337890625 513 420.5790100097656 513 290.9997253417969 C 513 233.8263549804688 492.8198547363281 181.3482818603516 459.3337097167969 140.5613555908203 Z M 281.9996948242188 55.99978637695312 C 154.6262817382812 55.99978637695312 51.00034713745117 161.4204254150391 51.00034713745117 290.9997253417969 C 51.00034713745117 339.876708984375 65.74634552001953 385.3197937011719 90.94684600830078 422.9612121582031 C 91.64955902099609 422.0589904785156 92.39749145507812 421.18115234375 93.19227600097656 420.3287963867188 L 401.3566284179688 89.86314392089844 C 366.5017700195312 68.37750244140625 325.6447143554688 55.99978637695312 281.9996948242188 55.99978637695312 Z"/>
  </g>
</svg>
