<svg xmlns="http://www.w3.org/2000/svg" width="448" height="481" viewBox="0 0 448 481">
  <defs>
    <style>
      .cls-1 {
        fill: #e91818;
      }

      .cls-2, .cls-3 {
        stroke: none;
      }

      .cls-3 {
        fill: #707070;
      }
    </style>
  </defs>
  <g id="Subtraction_1" data-name="Subtraction 1" class="cls-1" transform="translate(0 0)">
    <path class="cls-2" d="M 224.0001068115234 480.4996337890625 C 208.8379821777344 480.4996337890625 193.6855163574219 478.859619140625 178.9634552001953 475.6252136230469 C 164.6156921386719 472.4729919433594 150.5024566650391 467.769287109375 137.0157470703125 461.6447448730469 C 123.7733993530273 455.631103515625 111.0008163452148 448.187744140625 99.05293273925781 439.5213928222656 C 87.21781158447266 430.9367980957031 76.08840179443359 421.0777282714844 65.97386932373047 410.2182006835938 C 55.85881423950195 399.3580322265625 46.67546081542969 387.4078063964844 38.67881393432617 374.6994018554688 C 30.60534286499023 361.8688659667969 23.67093086242676 348.1520385742188 18.06816482543945 333.9300231933594 C 12.36175346374512 319.4446716308594 7.979106903076172 304.2861022949219 5.04204797744751 288.8753967285156 C 2.028165578842163 273.0622863769531 0.4999891519546509 256.786376953125 0.4999891519546509 240.4998016357422 C 0.4999891519546509 210.9378662109375 5.444989204406738 182.0771484375 15.19763660430908 154.7193908691406 C 19.89734268188477 141.5361022949219 25.73451805114746 128.7103271484375 32.5471076965332 116.598388671875 C 38.50444412231445 106.0070419311523 45.27159118652344 95.84703826904297 52.69945526123047 86.33757781982422 C 46.80850982666016 100.1696395874023 49.36399459838867 116.2636108398438 59.63410568237305 127.6692733764648 L 168.2608184814453 248.3121795654297 L 66.61051940917969 357.3189697265625 C 59.51716613769531 364.9256286621094 55.81110763549805 374.8547973632812 56.17498779296875 385.2774353027344 C 56.53887176513672 395.7000427246094 60.92845916748047 405.346435546875 68.53511047363281 412.4397277832031 C 75.78075408935547 419.1963806152344 85.22399139404297 422.9174499511719 95.12522125244141 422.9174499511719 C 105.9072799682617 422.9174499511719 116.306282043457 418.39697265625 123.6558151245117 410.5151062011719 L 220.6528167724609 306.4980163574219 L 317.9179382324219 414.5226745605469 C 325.3036499023438 422.7249145507812 335.8719787597656 427.4285583496094 346.9131774902344 427.4276123046875 C 356.559814453125 427.4266357421875 365.8234558105469 423.8689880371094 372.9975280761719 417.4100341796875 C 388.9781799316406 403.0204467773438 390.2729797363281 378.3122253417969 375.8840026855469 362.3312072753906 L 274.0513610839844 249.2348022460938 L 386.9075622558594 128.2120971679688 C 394.0121154785156 120.593505859375 397.7243347167969 110.6642684936523 397.3605651855469 100.2534484863281 C 397.14794921875 94.16659545898438 395.5567932128906 88.341064453125 392.7490539550781 83.13208770751953 C 398.7064208984375 90.49359893798828 404.2525634765625 98.24505615234375 409.3211669921875 106.3002166748047 C 417.3949279785156 119.1312103271484 424.3294067382812 132.8479766845703 429.9319152832031 147.0695037841797 C 435.6383361816406 161.5548553466797 440.02099609375 176.7134552001953 442.9581604003906 192.1242065429688 C 445.9720458984375 207.9373931884766 447.5002136230469 224.2132720947266 447.5002136230469 240.4998016357422 C 447.5002136230469 256.7863159179688 445.9720458984375 273.0622253417969 442.9581604003906 288.8753967285156 C 440.02099609375 304.2861633300781 435.6383361816406 319.4447326660156 429.9319152832031 333.9300231933594 C 424.3294067382812 348.151611328125 417.3949279785156 361.8683776855469 409.3211669921875 374.6994018554688 C 401.3246459960938 387.4076843261719 392.1412353515625 399.35791015625 382.0260009765625 410.2182006835938 C 371.9115295410156 421.0777282714844 360.7821044921875 430.9367370605469 348.9468688964844 439.5213928222656 C 336.9985046386719 448.1880493164062 324.2259826660156 455.6313781738281 310.9840393066406 461.6447448730469 C 297.4974060058594 467.769287109375 283.3842163085938 472.4729919433594 269.0365295410156 475.6252136230469 C 254.314453125 478.859619140625 239.1620483398438 480.4996337890625 224.0001068115234 480.4996337890625 Z M 221.6602783203125 191.0481109619141 L 117.5992813110352 75.47692108154297 C 110.2157516479492 67.27639007568359 99.64757537841797 62.57315444946289 88.60451507568359 62.57315444946289 C 81.47397613525391 62.57315444946289 74.44890594482422 64.55741119384766 68.38939666748047 68.22721099853516 C 77.63858032226562 58.59374237060547 87.68735504150391 49.79025650024414 98.31263732910156 42.01644897460938 C 110.3089904785156 33.2396240234375 123.1435775756836 25.70003700256348 136.4599914550781 19.60709571838379 C 150.0215148925781 13.40186023712158 164.2198181152344 8.635624885559082 178.6604614257812 5.440683841705322 C 193.4790496826172 2.162272214889526 208.7335205078125 0.499978095293045 224.0001068115234 0.499978095293045 C 239.1620483398438 0.499978095293045 254.314453125 2.139978170394897 269.0365295410156 5.3743896484375 C 283.3842163085938 8.526625633239746 297.4974060058594 13.23033142089844 310.9840393066406 19.35486030578613 C 324.2259826660156 25.36821365356445 336.9985046386719 32.81156539916992 348.9468688964844 41.47821426391602 C 360.5559997558594 49.89886093139648 371.4856872558594 59.54526519775391 381.4448547363281 70.15973663330078 C 374.7853088378906 65.26691436767578 366.7523803710938 62.61444854736328 358.3925170898438 62.61444854736328 C 347.6105651855469 62.61444854736328 337.2111206054688 67.13497924804688 329.8605651855469 75.01692199707031 L 221.6602783203125 191.0481109619141 Z"/>
    <path class="cls-3" d="M 224.0001068115234 479.9996032714844 C 239.1260375976562 479.9996032714844 254.2423553466797 478.3635559082031 268.9292297363281 475.1368713378906 C 283.2427978515625 471.9921264648438 297.3225402832031 467.299560546875 310.77734375 461.1894836425781 C 323.9888610839844 455.18994140625 336.732177734375 447.7635498046875 348.6533508300781 439.1166687011719 C 360.4627380371094 430.5507507324219 371.5677795410156 420.7131652832031 381.6600952148438 409.87744140625 C 391.75390625 399.0401916503906 400.9180297851562 387.114990234375 408.8979797363281 374.43310546875 C 416.9552307128906 361.6282958984375 423.8755493164062 347.9394836425781 429.4666748046875 333.7468566894531 C 435.1618041992188 319.2903137207031 439.5357360839844 304.161865234375 442.467041015625 288.78173828125 C 445.4750366210938 272.9992980957031 447.000244140625 256.7549133300781 447.000244140625 240.4998016357422 C 447.000244140625 224.2446746826172 445.4750366210938 208.0003051757812 442.467041015625 192.2178649902344 C 439.5356750488281 176.8376159667969 435.1617431640625 161.7091827392578 429.4666748046875 147.2528076171875 C 423.8756713867188 133.0603637695312 416.9553527832031 119.3714904785156 408.8979797363281 106.5664901733398 C 404.6026306152344 99.74022674560547 399.9637451171875 93.13265228271484 395.0218811035156 86.79652404785156 C 396.7263793945312 91.01811218261719 397.6965637207031 95.55068969726562 397.8602294921875 100.2359924316406 C 398.2287292480469 110.7803039550781 394.4688720703125 120.8368606567383 387.2732849121094 128.5531158447266 L 274.7295227050781 249.2407836914062 L 376.2555541992188 361.9966735839844 C 390.8290405273438 378.1825561523438 389.5176086425781 403.2075500488281 373.33203125 417.7816772460938 C 366.0660400390625 424.3233642578125 356.6836547851562 427.9266052246094 346.9131774902344 427.9276123046875 C 335.73046875 427.9285583496094 325.0267333984375 423.1646118164062 317.5464172363281 414.8572387695312 L 220.6463928222656 307.2380676269531 L 124.021484375 410.8561096191406 C 116.5777282714844 418.8389892578125 106.0454177856445 423.4174194335938 95.12522888183594 423.4174194335938 C 87.02986907958984 423.4174194335938 79.23752593994141 420.9619445800781 72.67369079589844 416.4153137207031 C 81.01632690429688 424.6943969726562 89.95919799804688 432.3075866699219 99.34648132324219 439.1166687011719 C 111.2671661376953 447.7632446289062 124.0104827880859 455.1896057128906 137.2224884033203 461.1894836425781 C 150.6773529052734 467.299560546875 164.7571716308594 471.9921264648438 179.0707244873047 475.1368713378906 C 193.7576141357422 478.3635559082031 208.8739776611328 479.9996032714844 224.0001068115234 479.9996032714844 M 61.22328567504883 404.1998291015625 C 57.83420944213867 398.5417785644531 55.91223526000977 392.0805358886719 55.67535781860352 385.2948608398438 C 55.30679321289062 374.7387390136719 59.06042098999023 364.6823120117188 66.24485778808594 356.9779968261719 L 167.5827026367188 248.3062438964844 L 59.26254272460938 128.0037994384766 C 49.63310623168945 117.3097457885742 46.69979858398438 102.5468902587891 51.05099487304688 89.29865264892578 C 44.43734741210938 98.01658630371094 38.37711334228516 107.2532806396484 32.98291778564453 116.8435516357422 C 26.18416976928711 128.9308624267578 20.35879516601562 141.7306823730469 15.66866970062256 154.8872985839844 C 5.935231685638428 182.1911163330078 0.9999818205833435 210.995361328125 0.9999818205833435 240.4998016357422 C 0.9999818205833435 256.7549743652344 2.525169372558594 272.9993591308594 5.533169269561768 288.78173828125 C 8.464544296264648 304.162109375 12.83841896057129 319.2905578613281 18.53335762023926 333.7467956542969 C 24.12473106384277 347.9398498535156 31.04498100280762 361.628662109375 39.10204315185547 374.43310546875 C 45.71178817749023 384.9375 53.13315963745117 394.9218139648438 61.22328567504883 404.1998291015625 M 221.6666870117188 190.30810546875 L 329.4949340820312 74.67592620849609 C 336.9396667480469 66.69292449951172 347.4724731445312 62.1144905090332 358.3925476074219 62.1144905090332 C 365.381591796875 62.1144905090332 372.1458129882812 63.94541168212891 378.0875549316406 67.37149810791016 C 368.9674072265625 58.00859069824219 359.0852966308594 49.44974899291992 348.6533508300781 41.88292694091797 C 336.7319946289062 33.23592758178711 323.9886779785156 25.80961418151855 310.77734375 19.81011390686035 C 297.3225402832031 13.70005130767822 283.2427978515625 9.007489204406738 268.9292297363281 5.862739086151123 C 254.2423553466797 2.636051654815674 239.1260375976562 0.9999891519546509 224.0001068115234 0.9999891519546509 C 208.7697906494141 0.9999891519546509 193.5516662597656 2.658301591873169 178.7684783935547 5.928926467895508 C 164.3621673583984 9.116239547729492 150.1974792480469 13.87123870849609 136.6679840087891 20.06180191040039 C 123.3824844360352 26.14055252075195 110.5771713256836 33.66292572021484 98.60791778564453 42.41999053955078 C 88.89176940917969 49.52859878540039 79.658935546875 57.49997711181641 71.08039855957031 66.18108367919922 C 76.49716186523438 63.50310897827148 82.51306915283203 62.07317733764648 88.60454559326172 62.07317733764648 C 99.78904724121094 62.07317733764648 110.4926071166992 66.83673858642578 117.9707946777344 75.14236450195312 L 221.6666870117188 190.30810546875 M 224.0001068115234 480.9996032714844 C 208.8017883300781 480.9996032714844 193.6132354736328 479.3556823730469 178.8561706542969 476.1135559082031 C 164.4741058349609 472.9537963867188 150.3274230957031 468.2389221191406 136.8089752197266 462.0999755859375 C 123.5361709594727 456.0724792480469 110.7344207763672 448.6121826171875 98.75935363769531 439.9261779785156 C 86.89817047119141 431.3226013183594 75.74448394775391 421.4421081542969 65.60797882080078 410.5589904785156 C 55.47160720825195 399.6759338378906 46.2689208984375 387.7006225585938 38.25566864013672 374.9656677246094 C 30.16560745239258 362.1087951660156 23.21704483032227 348.3641052246094 17.60298156738281 334.1133728027344 C 11.88523197174072 319.5992431640625 7.493856906890869 304.4104919433594 4.550856590270996 288.968994140625 C 1.53110682964325 273.125 -1.81884770427132e-05 256.8175659179688 -1.81884770427132e-05 240.4998016357422 C -1.81884770427132e-05 210.8804931640625 4.954794406890869 181.9633636474609 14.72673225402832 154.5514831542969 C 19.43585586547852 141.341552734375 25.28491973876953 128.4898071289062 32.11135864257812 116.3533020019531 C 38.86367034912109 104.3484878540039 46.65429306030273 92.89667510986328 55.2668571472168 82.31580352783203 C 46.89898300170898 96.80180358886719 48.80266952514648 114.8930511474609 60.00566864013672 127.3346786499023 L 168.9389801025391 248.318115234375 L 66.97623443603516 357.6600036621094 C 59.97391891479492 365.1689758300781 56.31548309326172 374.9708557128906 56.67473220825195 385.2599792480469 C 57.03392028808594 395.5490417480469 61.36710739135742 405.0718078613281 68.87610626220703 412.0740661621094 C 76.02885437011719 418.7441101074219 85.35098266601562 422.4174194335938 95.12522888183594 422.4174194335938 C 105.7691040039062 422.4174194335938 116.034797668457 417.9549255371094 123.2901077270508 410.1741027832031 L 220.6593017578125 305.7579345703125 L 318.28955078125 414.1881103515625 C 325.5804748535156 422.2851867675781 336.013427734375 426.9285583496094 346.9131164550781 426.9276123046875 C 356.43603515625 426.9266052246094 365.5808715820312 423.4146118164062 372.6629943847656 417.0384826660156 C 388.4386596679688 402.8334350585938 389.7169799804688 378.4419250488281 375.5124206542969 362.6658020019531 L 273.3732299804688 249.2289276123047 L 386.5419311523438 127.8711166381836 C 393.5552978515625 120.3502426147461 397.219970703125 110.5482406616211 396.8608703613281 100.2709274291992 C 396.5018005371094 89.99342346191406 392.1618041992188 80.47074127197266 384.6402282714844 73.45711517333984 C 377.4879760742188 66.78755187988281 368.1663513183594 63.1144905090332 358.3925476074219 63.1144905090332 C 347.7486572265625 63.1144905090332 337.4825439453125 67.57704925537109 330.2262268066406 75.35792541503906 L 221.6537933349609 191.7882385253906 L 117.227668762207 75.81149291992188 C 109.9387969970703 67.71611785888672 99.50604248046875 63.07317733764648 88.60454559326172 63.07317733764648 C 79.9825439453125 63.07317733764648 71.51716613769531 66.01167297363281 64.76792144775391 71.34748840332031 C 74.92229461669922 60.32880020141602 86.10948181152344 50.32517623901367 98.01741790771484 41.6129264831543 C 110.0407943725586 32.81630325317383 122.9047317504883 25.25942611694336 136.2519226074219 19.15248870849609 C 149.8456726074219 12.9324893951416 164.0776672363281 8.154989242553711 178.5524749755859 4.95255184173584 C 193.4063568115234 1.666301608085632 208.6971740722656 -1.08642580016749e-05 224.0001068115234 -1.08642580016749e-05 C 239.1982269287109 -1.08642580016749e-05 254.3867340087891 1.643926620483398 269.143798828125 4.886051654815674 C 283.5257873535156 8.045801162719727 297.6724853515625 12.76067638397217 311.1908569335938 18.89961433410645 C 324.4635925292969 24.92698860168457 337.2652893066406 32.38742828369141 349.240478515625 41.07342529296875 C 361.1015930175781 49.67692565917969 372.2554321289062 59.55742645263672 382.391845703125 70.44061279296875 C 392.5284118652344 81.32373809814453 401.7311096191406 93.29904937744141 409.7443542480469 106.0339279174805 C 417.8345947265625 118.8911743164062 424.7832336425781 132.6358642578125 430.3970947265625 146.8863067626953 C 436.1149291992188 161.4004821777344 440.50634765625 176.5892944335938 443.4493713378906 192.0306091308594 C 446.4691162109375 207.8746795654297 448.000244140625 224.1821136474609 448.000244140625 240.4998016357422 C 448.000244140625 256.8174743652344 446.4691162109375 273.1249389648438 443.4493713378906 288.968994140625 C 440.50634765625 304.4103698730469 436.1149291992188 319.59912109375 430.3970947265625 334.1133728027344 C 424.7832336425781 348.3637390136719 417.8345947265625 362.1084899902344 409.7443542480469 374.9656677246094 C 401.7311096191406 387.7005615234375 392.5284118652344 399.6758728027344 382.391845703125 410.5589904785156 C 372.2554321289062 421.4421691894531 361.1015930175781 431.3226623535156 349.240478515625 439.9261779785156 C 337.2652893066406 448.6122436523438 324.4635925292969 456.0726013183594 311.1908569335938 462.0999755859375 C 297.6724853515625 468.2389221191406 283.5257873535156 472.9537963867188 269.143798828125 476.1135559082031 C 254.3867340087891 479.3556823730469 239.1982269287109 480.9996032714844 224.0001068115234 480.9996032714844 Z"/>
  </g>
</svg>
