<svg xmlns="http://www.w3.org/2000/svg" width="521" height="528" viewBox="0 0 521 528">
  <defs>
    <style>
      .cls-1 {
        fill: #26ff04;
      }

      .cls-2, .cls-3 {
        stroke: none;
      }

      .cls-3 {
        fill: #707070;
      }
    </style>
  </defs>
  <g id="Subtraction_1" data-name="Subtraction 1" class="cls-1" transform="translate(0 0)">
    <path class="cls-2" d="M 260.4996032714844 527.5003051757812 C 242.8590545654297 527.5003051757812 225.2297973632812 525.6992797851562 208.1015319824219 522.147216796875 C 191.4083251953125 518.685302734375 174.9886627197266 513.5198364257812 159.2985992431641 506.7942810058594 C 143.8929901123047 500.1907653808594 129.0340576171875 492.0171508789062 115.1345291137695 482.5006103515625 C 101.3669967651367 473.0744934082031 88.42052459716797 462.2491455078125 76.6546630859375 450.3252258300781 C 64.88852691650391 438.4009399414062 54.20652770996094 425.2802734375 44.90546035766602 411.3276062011719 C 35.51479339599609 397.2408752441406 27.44926071166992 382.1816101074219 20.93279457092285 366.5680847167969 C 14.29612731933594 350.6663513183594 9.198794364929199 334.0249633789062 5.782527923583984 317.1061401367188 C 2.277261018753052 299.7464904785156 0.4999943673610687 281.8788757324219 0.4999943673610687 263.9996948242188 C 0.4999943673610687 246.1206207275391 2.277261018753052 228.2531585693359 5.782527923583984 210.8935546875 C 9.198794364929199 193.9748229980469 14.29612731933594 177.3334808349609 20.93279457092285 161.4318237304688 C 27.44926071166992 145.818359375 35.51479339599609 130.7591552734375 44.9053955078125 116.6724853515625 C 54.20699310302734 102.7194213867188 64.88893127441406 89.59881591796875 76.6546630859375 77.67501831054688 C 88.42066192626953 65.75095367431641 101.3671264648438 54.92562103271484 115.1345291137695 45.49975204467773 C 129.0339202880859 35.98321914672852 143.8928680419922 27.80961990356445 159.2985992431641 21.20601844787598 C 174.9888000488281 14.4804859161377 191.4084625244141 9.315019607543945 208.1015319824219 5.853152751922607 C 225.2297210693359 2.301085948944092 242.8589324951172 0.5000192523002625 260.4996032714844 0.5000192523002625 C 278.1403198242188 0.5000192523002625 295.7696533203125 2.301085948944092 312.8979797363281 5.853152751922607 C 329.5911254882812 9.315019607543945 346.0108642578125 14.4804859161377 361.7011413574219 21.20601844787598 C 377.10693359375 27.80961990356445 391.9659423828125 35.98321914672852 405.8653869628906 45.49968719482422 C 419.6328735351562 54.92568588256836 432.5794067382812 65.75102233886719 444.3453369140625 77.67501831054688 C 456.111328125 89.59908294677734 466.7933349609375 102.7196884155273 476.0946655273438 116.6724853515625 C 485.4853820800781 130.7592163085938 493.5509338378906 145.8184204101562 500.0673217773438 161.4318237304688 C 506.7040710449219 177.3338165283203 511.8013916015625 193.9751586914062 515.2175903320312 210.8935546875 C 518.7228393554688 228.2531585693359 520.5001220703125 246.1206207275391 520.5001220703125 263.9996948242188 C 520.5001220703125 281.8788757324219 518.7228393554688 299.7464904785156 515.2175903320312 317.1061401367188 C 511.8013916015625 334.0246276855469 506.7040710449219 350.666015625 500.0673217773438 366.5680847167969 C 493.5508728027344 382.1817626953125 485.4853210449219 397.2410278320312 476.0946655273438 411.3276062011719 C 466.7935180664062 425.2802124023438 456.1115417480469 438.40087890625 444.3453369140625 450.3252258300781 C 432.5791931152344 462.2494201660156 419.6326599121094 473.0747375488281 405.8653869628906 482.5005493164062 C 391.9656677246094 492.0172119140625 377.1066589355469 500.1908264160156 361.7011413574219 506.7942810058594 C 346.010986328125 513.5198364257812 329.5912475585938 518.685302734375 312.8979797363281 522.147216796875 C 295.7695922851562 525.6992797851562 278.1401977539062 527.5003051757812 260.4996032714844 527.5003051757812 Z M 179.1701507568359 451.8740234375 C 180.4566345214844 453.8070983886719 181.9102172851562 455.6343994140625 183.491455078125 457.3060302734375 C 190.5249328613281 464.7462158203125 199.7061309814453 468.8438110351562 209.3435974121094 468.8438110351562 C 211.0746002197266 468.8438110351562 212.8184661865234 468.7066955566406 214.5265960693359 468.436279296875 C 217.6729431152344 467.93701171875 220.7286071777344 466.9861755371094 223.6095428466797 465.6097717285156 C 230.1896820068359 462.9745483398438 235.8257751464844 458.2901306152344 239.9081268310547 452.0624084472656 C 240.4517364501953 451.2344360351562 240.9745178222656 450.3662719726562 241.4623107910156 449.4816589355469 L 479.6659851074219 178.5634155273438 C 493.3013305664062 163.0552215576172 492.5477294921875 137.9073486328125 477.9861145019531 122.504753112793 C 470.9522705078125 115.0654830932617 461.7707824707031 110.9685516357422 452.133056640625 110.9685516357422 C 442.3990478515625 110.9685516357422 433.3753356933594 115.1344833374023 426.7240600585938 122.6990203857422 L 204.6181488037109 375.309326171875 L 76.18112945556641 272.2371520996094 C 69.72352600097656 267.0549621582031 62.14859390258789 264.3158264160156 54.27539443969727 264.3158874511719 C 48.75272750854492 264.3159484863281 43.25699615478516 265.7186279296875 38.38225936889648 268.3722229003906 C 35.89499282836914 269.7262268066406 33.56279373168945 271.4040222167969 31.45046043395996 273.3591613769531 C 29.27786064147949 275.3700866699219 27.32672691345215 277.6852722167969 25.65126037597656 280.2405395507812 C 14.17826080322266 297.73828125 18.12032699584961 322.6282958984375 34.43879318237305 335.7245483398438 L 179.1701507568359 451.8740234375 Z"/>
    <path class="cls-3" d="M 260.4996032714844 527.0003051757812 C 278.106201171875 527.0003051757812 295.7013854980469 525.2027587890625 312.7964477539062 521.65771484375 C 329.4570617675781 518.2025146484375 345.8446655273438 513.0470581054688 361.5041198730469 506.3346862792969 C 376.8797912597656 499.7440185546875 391.7099914550781 491.5862731933594 405.5829162597656 482.0880126953125 C 419.3238525390625 472.6802062988281 432.2456665039062 461.87548828125 443.9894714355469 449.9740295410156 C 455.7333374023438 438.0722961425781 466.3951416015625 424.9764099121094 475.6785888671875 411.05029296875 C 485.0514526367188 396.9903564453125 493.101806640625 381.9595642089844 499.6058654785156 366.3755493164062 C 506.2300720214844 350.5035400390625 511.3177185058594 333.8936157226562 514.7275390625 317.0071411132812 C 518.2261962890625 299.6800231933594 520.0001220703125 281.8456726074219 520.0001220703125 263.9996948242188 C 520.0001220703125 246.1538238525391 518.2261962890625 228.3196258544922 514.7275390625 210.9925537109375 C 511.3177185058594 194.1061553955078 506.2300720214844 177.4962921142578 499.6058654785156 161.6243591308594 C 495.7290344238281 152.3353729248047 491.3023071289062 143.2420043945312 486.3740234375 134.4344329833984 C 492.6457214355469 149.0936431884766 490.6224365234375 166.8592681884766 480.0415344238281 178.8936157226562 L 241.8736724853516 449.7711181640625 C 241.3872985839844 450.6503295898438 240.8669281005859 451.5131225585938 240.3263244628906 452.3364868164062 C 236.1902618408203 458.6460876464844 230.4797058105469 463.3937377929688 223.8098449707031 466.0681762695312 C 220.8899993896484 467.4613647460938 217.7931976318359 468.4241943359375 214.6047973632812 468.9300842285156 C 212.8708648681641 469.2046203613281 211.1007232666016 469.3438110351562 209.3435974121094 469.3438110351562 C 199.5671997070312 469.3438110351562 190.2569885253906 465.190673828125 183.1282653808594 457.6496276855469 C 181.5451965332031 455.9761352539062 180.0885467529297 454.1484985351562 178.7971496582031 452.2158203125 L 34.12579345703125 336.1145629882812 C 17.612060546875 322.8614807128906 13.62279415130615 297.6735534667969 25.23312759399414 279.9663391113281 C 26.93086051940918 277.3771667480469 28.90839385986328 275.0307006835938 31.11079406738281 272.9922180175781 C 33.2535285949707 271.0089416503906 35.61959457397461 269.3068237304688 38.14319610595703 267.9330749511719 C 43.09106063842773 265.2396240234375 48.66946029663086 263.8159484863281 54.27539443969727 263.8158874511719 C 62.2636604309082 263.8158264160156 69.94672393798828 266.593017578125 76.49406433105469 271.8471374511719 L 204.5582580566406 374.6201171875 L 426.3485412597656 122.3688201904297 C 433.0961303710938 114.6948165893555 442.2532653808594 110.4685516357422 452.133056640625 110.4685516357422 C 461.90966796875 110.4685516357422 471.2201843261719 114.6210861206055 478.3494567871094 122.1612167358398 C 479.2829284667969 123.1486206054688 480.1598510742188 124.1750106811523 480.9810180664062 125.2366104125977 C 479.2645874023438 122.4402923583984 477.49609375 119.6761856079102 475.6785888671875 116.949821472168 C 466.3948669433594 103.0234832763672 455.7331237792969 89.92768859863281 443.9894714355469 78.02622222900391 C 432.245849609375 66.12495422363281 419.3240661621094 55.32028579711914 405.5829162597656 45.91228485107422 C 391.7102661132812 36.41415405273438 376.8800659179688 28.25642013549805 361.5041198730469 21.66561889648438 C 345.8446044921875 14.95315265655518 329.4569396972656 9.797819137573242 312.7964477539062 6.342685699462891 C 295.7014465332031 2.797552585601807 278.1062622070312 1.000019311904907 260.4996032714844 1.000019311904907 C 242.8929901123047 1.000019311904907 225.2979278564453 2.797552585601807 208.2030639648438 6.342685699462891 C 191.5426635742188 9.797819137573242 175.1550598144531 14.95315265655518 159.4955902099609 21.66561889648438 C 144.1197204589844 28.25642013549805 129.2895965576172 36.41415405273438 115.4169921875 45.91228485107422 C 101.6759262084961 55.32015228271484 88.75412750244141 66.12481689453125 77.01052856445312 78.02622222900391 C 65.26712799072266 89.92735290527344 54.60539627075195 103.0232162475586 45.32146072387695 116.949821472168 C 35.94859313964844 131.0098266601562 27.8983268737793 146.0404815673828 21.39426040649414 161.6243591308594 C 14.77012729644775 177.4959564208984 9.682460784912109 194.1058197021484 6.272594451904297 210.9925537109375 C 2.773927688598633 228.3196258544922 0.9999943971633911 246.1538238525391 0.9999943971633911 263.9996948242188 C 0.9999943971633911 281.8456726074219 2.773927688598633 299.6800231933594 6.272594451904297 317.0071411132812 C 9.682460784912109 333.8939514160156 14.77012729644775 350.5038757324219 21.39426040649414 366.3755493164062 C 27.8983268737793 381.95947265625 35.94859313964844 396.990234375 45.32146072387695 411.05029296875 C 54.60499572753906 424.9764709472656 65.26673126220703 438.0723571777344 77.01052856445312 449.9740295410156 C 88.75399780273438 461.8752136230469 101.6757965087891 472.6799621582031 115.4169921875 482.0880126953125 C 129.2896575927734 491.5862121582031 144.1198577880859 499.7439575195312 159.4955902099609 506.3346862792969 C 175.1549987792969 513.0470581054688 191.5425262451172 518.2025146484375 208.2030639648438 521.6575927734375 C 225.2979888916016 525.2027587890625 242.8931274414062 527.0003051757812 260.4996032714844 527.0003051757812 M 260.4996032714844 528.0003051757812 C 242.8249969482422 528.0003051757812 225.1615905761719 526.1957397460938 208 522.6368408203125 C 191.2743988037109 519.1681518554688 174.8226013183594 513.9926147460938 159.1015930175781 507.2538146972656 C 143.6661224365234 500.6374816894531 128.7783966064453 492.4480895996094 114.8520584106445 482.9131469726562 C 101.0581970214844 473.4690246582031 88.08699798583984 462.6230163574219 76.29872894287109 450.6764221191406 C 64.51052856445312 438.7297668457031 53.80826187133789 425.584228515625 44.48939514160156 411.6049499511719 C 35.08092880249023 397.4914855957031 27.0001277923584 382.4036865234375 20.47139358520508 366.7606811523438 C 13.82206058502197 350.8286743164062 8.715127944946289 334.15576171875 5.292394161224365 317.205078125 C 1.780594348907471 299.8128051757812 -5.631510248349514e-06 281.9118957519531 -5.631510248349514e-06 263.9996948242188 C -5.631510248349514e-06 246.0876159667969 1.780594348907471 228.1868133544922 5.292394161224365 210.7946166992188 C 8.715127944946289 193.8440246582031 13.82206058502197 177.1711578369141 20.47139358520508 161.2392120361328 C 27.0001277923584 145.5962829589844 35.08092880249023 130.5085601806641 44.48939514160156 116.395149230957 C 53.80859375 102.4156188964844 64.51079559326172 89.27014923095703 76.29872894287109 77.32382202148438 C 88.08705902099609 65.37715148925781 101.0582580566406 54.53115081787109 114.8520584106445 45.08715438842773 C 128.7781982421875 35.55235290527344 143.6658630371094 27.36295318603516 159.1015930175781 20.74648666381836 C 174.8226013183594 14.00768566131592 191.2743988037109 8.832152366638184 208 5.363552570343018 C 225.1615905761719 1.804552555084229 242.8249969482422 1.925455762830097e-05 260.4996032714844 1.925455762830097e-05 C 278.17431640625 1.925455762830097e-05 295.8377990722656 1.804552555084229 312.9995422363281 5.363552570343018 C 329.7251892089844 8.832152366638184 346.1770629882812 14.00768566131592 361.8981323242188 20.74648666381836 C 377.3339233398438 27.36295318603516 392.2216491699219 35.55235290527344 406.1478576660156 45.08715438842773 C 419.9418029785156 54.53128433227539 432.9129943847656 65.37728881835938 444.7012634277344 77.32382202148438 C 456.4893188476562 89.27028656005859 467.1915893554688 102.4157562255859 476.5106506347656 116.395149230957 C 485.9191284179688 130.5084838867188 494 145.5962219238281 500.5287170410156 161.2392120361328 C 507.1781311035156 177.1714935302734 512.2850341796875 193.8443450927734 515.7077026367188 210.7946166992188 C 519.2195434570312 228.1868133544922 521.0001220703125 246.0876159667969 521.0001220703125 263.9996948242188 C 521.0001220703125 281.9118957519531 519.2195434570312 299.8128051757812 515.7077026367188 317.205078125 C 512.2850341796875 334.1554260253906 507.1781311035156 350.8283386230469 500.5287170410156 366.7606811523438 C 493.9999389648438 382.4039611816406 485.9190673828125 397.4917602539062 476.5106506347656 411.6049499511719 C 467.1918640136719 425.5840759277344 456.4895935058594 438.7296142578125 444.7012634277344 450.6764221191406 C 432.9129333496094 462.6230163574219 419.9417419433594 473.4690856933594 406.1478576660156 482.9131469726562 C 392.2214050292969 492.4480895996094 377.3336486816406 500.6374816894531 361.8981323242188 507.2538146972656 C 346.1770629882812 513.9926147460938 329.7251892089844 519.1681518554688 312.9995422363281 522.6368408203125 C 295.8377990722656 526.1957397460938 278.17431640625 528.0003051757812 260.4996032714844 528.0003051757812 Z M 54.27539443969727 264.8158874511719 C 48.8360595703125 264.8159484863281 43.42292785644531 266.1975402832031 38.6213264465332 268.8113403320312 C 36.17052841186523 270.1454772949219 33.87212753295898 271.7990112304688 31.79006195068359 273.72607421875 C 29.64719390869141 275.70947265625 27.7225284576416 277.9934997558594 26.06939506530762 280.5146789550781 C 14.73372745513916 297.8030090332031 18.62866020202637 322.3951416015625 34.75172805786133 335.3346252441406 L 179.5437316894531 451.5327453613281 C 180.8250579833984 453.4661560058594 182.275390625 455.2928161621094 183.8547210693359 456.9624328613281 C 190.7928619384766 464.3018188476562 199.8450012207031 468.3438110351562 209.3435974121094 468.3438110351562 C 211.0485992431641 468.3438110351562 212.7661285400391 468.208740234375 214.4483947753906 467.9424133300781 C 217.5521240234375 467.449951171875 220.5668640136719 466.5110168457031 223.4087982177734 465.1515502929688 C 229.9000549316406 462.5557556152344 235.4608612060547 457.9347534179688 239.489990234375 451.7882995605469 C 240.036865234375 450.9552917480469 240.5618591308594 450.08203125 241.0505981445312 449.1927490234375 L 479.29052734375 178.2332916259766 C 492.7598571777344 162.913818359375 492.01171875 138.0682220458984 477.622802734375 122.8482208251953 C 470.6843872070312 115.5099563598633 461.6319885253906 111.4685516357422 452.133056640625 111.4685516357422 C 442.544921875 111.4685516357422 433.654541015625 115.5741500854492 427.0995178222656 123.0291519165039 L 204.6779937744141 375.9984130859375 L 75.86819458007812 272.6270751953125 C 69.50025939941406 267.5168762207031 62.03359603881836 264.8158264160156 54.27539443969727 264.8158874511719 Z"/>
  </g>
</svg>
