<svg xmlns="http://www.w3.org/2000/svg" xmlns:xlink="http://www.w3.org/1999/xlink" width="417.001" height="198" viewBox="0 0 417.001 198">
  <defs>
    <filter id="Exclusion_1">
      <feOffset dy="3" input="SourceAlpha"/>
      <feGaussianBlur stdDeviation="3" result="blur"/>
      <feFlood flood-color="#58bc0d" flood-opacity="0.161" result="color"/>
      <feComposite operator="out" in="SourceGraphic" in2="blur"/>
      <feComposite operator="in" in="color"/>
      <feComposite operator="in" in2="SourceGraphic"/>
    </filter>
  </defs>
  <g data-type="innerShadowGroup">
    <path id="Exclusion_1-2" data-name="Exclusion 1" d="M382,196.5H33A33.472,33.472,0,0,1-.5,163V33A33.472,33.472,0,0,1,33-.5H382A33.473,33.473,0,0,1,415.5,33V163A33.472,33.472,0,0,1,382,196.5ZM18.731,18.5v160H395.257V18.5Z" transform="translate(1 1)" fill="#2cf233"/>
    <g transform="matrix(1, 0, 0, 1, 0, 0)" filter="url(#Exclusion_1)">
      <path id="Exclusion_1-3" data-name="Exclusion 1" d="M382,196.5H33A33.472,33.472,0,0,1-.5,163V33A33.472,33.472,0,0,1,33-.5H382A33.473,33.473,0,0,1,415.5,33V163A33.472,33.472,0,0,1,382,196.5ZM18.731,18.5v160H395.257V18.5Z" transform="translate(1 1)" fill="#fff"/>
    </g>
    <path id="Exclusion_1-4" data-name="Exclusion 1" d="M382,196.5H33A33.472,33.472,0,0,1-.5,163V33A33.472,33.472,0,0,1,33-.5H382A33.473,33.473,0,0,1,415.5,33V163A33.472,33.472,0,0,1,382,196.5ZM18.731,18.5v160H395.257V18.5Z" transform="translate(1 1)" fill="none" stroke="#707070" stroke-width="1"/>
  </g>
</svg>
