<svg xmlns="http://www.w3.org/2000/svg" width="431.998" height="420" viewBox="0 0 431.998 420"><defs><style>.a{stroke:#707070;}.b{fill:#fff;}.c,.e{stroke:none;}.d{fill:none;}.e{fill:#707070;}</style></defs><g class="a" transform="translate(192.999)"><ellipse class="c" cx="23.5" cy="43.5" rx="23.5" ry="43.5"/><ellipse class="d" cx="23.5" cy="43.5" rx="23" ry="43"/></g><g transform="translate(0 62)"><g class="b"><path class="c" d="M 431.4949035644531 311.4994506835938 L 0.502936840057373 311.4994506835938 C 0.5888748168945312 300.4391479492188 2.095226287841797 289.3941955566406 4.981954097747803 278.6619262695312 C 7.839480400085449 268.0365905761719 12.0821647644043 257.5884399414062 17.59206008911133 247.6075592041016 C 23.00511169433594 237.8013916015625 29.69532203674316 228.3440246582031 37.47684860229492 219.498291015625 C 42.37427139282227 213.9319763183594 47.78263854980469 208.5260772705078 53.55163955688477 203.4307098388672 L 53.82937622070312 203.1854400634766 L 53.67547988891602 202.8483428955078 C 49.83479690551758 194.4336090087891 46.88805770874023 185.6647644042969 44.91721725463867 176.7855529785156 C 42.89779663085938 167.6873931884766 41.87384796142578 158.3391265869141 41.87384796142578 149.0003967285156 C 41.87384796142578 138.9301300048828 43.06284713745117 128.8662414550781 45.40779495239258 119.0882339477539 C 47.69332122802734 109.557975769043 51.10384750366211 100.1833953857422 55.54463958740234 91.22481536865234 C 59.9056396484375 82.42718505859375 65.30374145507812 73.94144439697266 71.58889770507812 66.00328826904297 C 77.81574249267578 58.13881683349609 84.96721649169922 50.74312973022461 92.84468841552734 44.0216064453125 C 100.7235870361328 37.2988166809082 109.3935852050781 31.1951847076416 118.6138458251953 25.88013076782227 C 127.9237976074219 20.51339340209961 137.8768005371094 15.90386772155762 148.1964263916016 12.17955207824707 C 158.7079010009766 8.38597297668457 169.7081604003906 5.472394466400146 180.8916931152344 3.519710063934326 C 192.3677368164062 1.516025900840759 204.1794738769531 0.5000258684158325 215.9989013671875 0.5000258684158325 C 227.8183288574219 0.5000258684158325 239.6300659179688 1.516025900840759 251.1061096191406 3.519710063934326 C 262.2896423339844 5.472394466400146 273.2898864746094 8.38597297668457 283.8013610839844 12.17955207824707 C 294.1210021972656 15.90386772155762 304.0740051269531 20.51339340209961 313.3839416503906 25.88013076782227 C 322.6042175292969 31.1951847076416 331.2742309570312 37.2988166809082 339.1531066894531 44.0216064453125 C 347.0305786132812 50.74312973022461 354.1820678710938 58.13881683349609 360.4089050292969 66.00328826904297 C 366.6940612792969 73.94144439697266 372.0921630859375 82.42718505859375 376.4531555175781 91.22481536865234 C 380.8939514160156 100.1833953857422 384.3044738769531 109.557975769043 386.5899963378906 119.0882339477539 C 388.9349670410156 128.8662414550781 390.1239624023438 138.9301300048828 390.1239624023438 149.0003967285156 C 390.1239624023438 158.3391265869141 389.1000061035156 167.6873931884766 387.0806274414062 176.7854461669922 C 385.1098022460938 185.6646118164062 382.1631164550781 194.4333343505859 378.3224182128906 202.8480834960938 L 378.1685180664062 203.1851806640625 L 378.4462585449219 203.4304504394531 C 384.2142639160156 208.5249176025391 389.6225891113281 213.9309234619141 394.52099609375 219.498291015625 C 402.3015441894531 228.3429260253906 408.9921264648438 237.80029296875 414.4068603515625 247.6076049804688 C 419.916015625 257.5890808105469 424.15869140625 268.0372924804688 427.0169677734375 278.6619262695312 C 429.904052734375 289.4011840820312 431.4100341796875 300.4459838867188 431.4949035644531 311.4994506835938 Z"/><path class="e" d="M 430.9900512695312 310.9994201660156 C 430.8642883300781 300.1565856933594 429.3663024902344 289.3268127441406 426.5341186523438 278.7918090820312 C 423.6864013671875 268.2062683105469 419.4588928222656 257.795654296875 413.9691162109375 247.8492584228516 C 408.57177734375 238.073486328125 401.9021911621094 228.6459350585938 394.1455688476562 219.8285369873047 C 389.2611083984375 214.2769927978516 383.8677368164062 208.885986328125 378.1152954101562 203.8052062988281 L 377.5598449707031 203.3146514892578 L 377.8675537109375 202.6404876708984 C 381.6937866210938 194.2574920654297 384.6292419433594 185.5221557617188 386.5924987792969 176.6770477294922 C 388.60400390625 167.6144866943359 389.6239624023438 158.3027038574219 389.6239624023438 149.0003814697266 C 389.6239624023438 138.9693756103516 388.4396362304688 128.9447174072266 386.1037902832031 119.2048187255859 C 383.8269653320312 109.7109909057617 380.4292907714844 100.3718795776367 376.0051879882812 91.44687652587891 C 371.65966796875 82.68048858642578 366.2803955078125 74.22443389892578 360.0169067382812 66.31365203857422 C 353.8101806640625 58.4745979309082 346.681396484375 51.10243225097656 338.8285827636719 44.40193176269531 C 330.972900390625 37.6989860534668 322.3280639648438 31.61309814453125 313.13427734375 26.31332206726074 C 303.8497924804688 20.96121025085449 293.9236145019531 16.36415481567383 283.6316223144531 12.64982128143311 C 273.1473388671875 8.866043090820312 262.1752319335938 5.959932327270508 251.0201263427734 4.012265682220459 C 239.5724029541016 2.013432264328003 227.7895660400391 0.9999878406524658 215.9989013671875 0.9999878406524658 C 204.2082366943359 0.9999878406524658 192.4253997802734 2.013432264328003 180.9776763916016 4.012265682220459 C 169.8225708007812 5.959932327270508 158.8504638671875 8.866043090820312 148.3661804199219 12.64982128143311 C 138.0741729736328 16.36415481567383 128.1480102539062 20.96121025085449 118.8635101318359 26.31332206726074 C 109.6697311401367 31.61309814453125 101.02490234375 37.6989860534668 93.16923522949219 44.40193176269531 C 85.31639862060547 51.10243225097656 78.1876220703125 58.4745979309082 71.98090362548828 66.31365203857422 C 65.71739959716797 74.22443389892578 60.3381233215332 82.68048858642578 55.99262237548828 91.44687652587891 C 51.56851196289062 100.3718795776367 48.17084503173828 109.7109909057617 45.89401245117188 119.2048187255859 C 43.55817794799805 128.9447174072266 42.37384414672852 138.9693756103516 42.37384414672852 149.0003814697266 C 42.37384414672852 158.3027038574219 43.39379119873047 167.6145477294922 45.40534591674805 176.6772155761719 C 47.36862182617188 185.5223236083984 50.30412292480469 194.2577667236328 54.13034439086914 202.6407623291016 L 54.43806838989258 203.3149261474609 L 53.88262176513672 203.8054809570312 C 48.12918090820312 208.8871002197266 42.73573303222656 214.2780456542969 37.85223388671875 219.8284912109375 C 30.09456825256348 228.6471557617188 23.42534637451172 238.0746612548828 18.0297908782959 247.8492126464844 C 12.53934574127197 257.7948303222656 8.311901092529297 268.2053833007812 5.464790344238281 278.7917785644531 C 2.632927656173706 289.3201904296875 1.134584665298462 300.1502075195312 1.007832527160645 310.9994201660156 L 430.9900512695312 310.9994201660156 M 431.997802734375 311.9994201660156 L 1.247829823114444e-05 311.9994201660156 C 0.04379025474190712 300.7286987304688 1.557401418685913 289.4688110351562 4.499123573303223 278.5320434570312 C 7.366401195526123 267.87060546875 11.62351226806641 257.3847045898438 17.15434646606445 247.3659362792969 C 22.58440208435059 237.5288696289062 29.29584503173828 228.0410919189453 37.10140228271484 219.1679840087891 C 42.03195571899414 213.5641021728516 47.42617797851562 208.173828125 53.22062301635742 203.0559844970703 C 45.57228851318359 186.2988739013672 41.37384414672852 168.0660400390625 41.37384414672852 149.0003814697266 C 41.37384414672852 66.70982360839844 119.5555648803711 -1.213921404996654e-05 215.9989013671875 -1.213921404996654e-05 C 312.4422302246094 -1.213921404996654e-05 390.6239624023438 66.70982360839844 390.6239624023438 149.0003814697266 C 390.6239624023438 168.0660400390625 386.4256286621094 186.2985992431641 378.7772827148438 203.0557098388672 C 384.5717468261719 208.1735382080078 389.9658508300781 213.5641021728516 394.8963317871094 219.1679840087891 C 402.7019653320312 228.0410919189453 409.4133911132812 237.5288696289062 414.8445739746094 247.3659362792969 C 420.3742980957031 257.3847045898438 424.6314086914062 267.8697204589844 427.4997863769531 278.5320434570312 C 430.4404602050781 289.4706115722656 431.955078125 300.7304992675781 431.997802734375 311.9994201660156 Z"/></g><g class="a" transform="translate(193.999 312)"><ellipse class="c" cx="22.5" cy="23" rx="22.5" ry="23"/><ellipse class="d" cx="22.5" cy="23" rx="22" ry="22.5"/></g></g></svg>