<?xml version="1.0" encoding="UTF-8"?>
<svg id="Layer_2" data-name="Layer 2" xmlns="http://www.w3.org/2000/svg" viewBox="0 0 23.36 15.18">
  <defs>
    <style>
      .cls-1, .cls-2 {
        stroke-width: 0px;
      }

      .cls-3 {
        stroke: #000;
        stroke-linecap: round;
        stroke-miterlimit: 10;
      }

      .cls-2 {
        fill: #fff;
      }
    </style>
  </defs>
  <g id="Layer_1-2" data-name="Layer 1">
    <g>
      <g>
        <path class="cls-2" d="m4.24,14.68c-2.06,0-3.74-1.75-3.74-3.89v-6.39C.5,2.25,2.18.5,4.24.5h6.69c2.06,0,3.74,1.75,3.74,3.89v.41H6.43v5.63h8.24v.35c0,2.15-1.68,3.89-3.74,3.89h-6.69Z"/>
        <path class="cls-1" d="m10.93,1c1.76,0,3.2,1.48,3.24,3.31H5.93v6.63h8.24c-.08,1.8-1.5,3.24-3.24,3.24h-6.69c-1.79,0-3.24-1.52-3.24-3.39v-6.39c0-1.87,1.45-3.39,3.24-3.39h6.69m0-1h-6.69C1.9,0,0,1.97,0,4.39v6.39c0,2.43,1.9,4.39,4.24,4.39h6.69c2.34,0,4.24-1.97,4.24-4.39v-.85H6.93v-4.63h8.24v-.91c0-2.43-1.9-4.39-4.24-4.39h0Z"/>
      </g>
      <polygon class="cls-3" points="22.41 7.68 16.27 3.75 16.24 5.31 15.18 5.31 15.18 9.94 16.18 9.94 16.16 11.43 22.41 7.68"/>
      <rect class="cls-3" x="6.93" y="5.31" width="8.24" height="4.63"/>
    </g>
  </g>
</svg>